<svg width="50" height="50" viewBox="0 0 50 50" fill="none" xmlns="http://www.w3.org/2000/svg">
<path fill-rule="evenodd" clip-rule="evenodd" d="M15.8333 5.83334C13.1812 5.83334 10.6376 6.8869 8.76227 8.76227C6.8869 10.6376 5.83334 13.1812 5.83334 15.8333V35.8333C5.83334 38.4855 6.8869 41.029 8.76227 42.9044C10.6376 44.7798 13.1812 45.8333 15.8333 45.8333H35.8333C38.4855 45.8333 41.029 44.7798 42.9044 42.9044C44.7798 41.029 45.8333 38.4855 45.8333 35.8333V15.8333C45.8333 13.1812 44.7798 10.6376 42.9044 8.76227C41.029 6.8869 38.4855 5.83334 35.8333 5.83334H15.8333ZM33.2933 23.2013C33.473 23.0096 33.6131 22.7844 33.7057 22.5385C33.7983 22.2926 33.8416 22.0309 33.833 21.7683C33.8245 21.5057 33.7643 21.2473 33.6559 21.008C33.5475 20.7686 33.3931 20.553 33.2013 20.3733C33.0096 20.1937 32.7844 20.0536 32.5385 19.961C32.2926 19.8684 32.0309 19.8251 31.7683 19.8336C31.5057 19.8422 31.2473 19.9024 31.008 20.0108C30.7686 20.1191 30.553 20.2736 30.3733 20.4653L24.2073 27.0453L21.1613 24.3393C20.7623 24.0076 20.2498 23.8439 19.7323 23.883C19.2148 23.922 18.7328 24.1607 18.388 24.5486C18.0432 24.9365 17.8627 25.4432 17.8846 25.9617C17.9065 26.4802 18.1291 26.9699 18.5053 27.3273L23.0053 31.3273C23.3947 31.6732 23.9036 31.8536 24.4239 31.83C24.9442 31.8065 25.4348 31.5809 25.7913 31.2013L33.2913 23.2013H33.2933Z" fill="#344FA1"/>
</svg>
