<svg width="40" height="40" viewBox="0 0 40 40" fill="none" xmlns="http://www.w3.org/2000/svg">
<g clip-path="url(#clip0_2_22)">
<rect width="40" height="40" rx="11" fill="white"/>
<path fill-rule="evenodd" clip-rule="evenodd" d="M10 0C7.34783 0 4.8043 1.07991 2.92893 3.00216C1.05357 4.9244 0 7.53153 0 10.25V30.75C0 33.4685 1.05357 36.0756 2.92893 37.9978C4.8043 39.9201 7.34783 41 10 41H30C32.6522 41 35.1957 39.9201 37.0711 37.9978C38.9464 36.0756 40 33.4685 40 30.75V10.25C40 7.53153 38.9464 4.9244 37.0711 3.00216C35.1957 1.07991 32.6522 0 30 0H10ZM27.46 17.8022C27.6396 17.6057 27.7798 17.3748 27.8724 17.1228C27.965 16.8707 28.0082 16.6025 27.9997 16.3333C27.9912 16.0642 27.931 15.7993 27.8226 15.554C27.7142 15.3087 27.5597 15.0876 27.368 14.9035C27.1763 14.7194 26.951 14.5757 26.7051 14.4808C26.4593 14.3859 26.1976 14.3416 25.9349 14.3503C25.6723 14.3591 25.414 14.4208 25.1746 14.5319C24.9353 14.6429 24.7196 14.8013 24.54 14.9978L18.374 21.7423L15.328 18.9687C14.9289 18.6286 14.4165 18.4609 13.899 18.5009C13.3815 18.5409 12.8994 18.7855 12.5546 19.1831C12.2099 19.5807 12.0293 20.1001 12.0512 20.6316C12.0731 21.163 12.2957 21.665 12.672 22.0313L17.172 26.1313C17.5614 26.4859 18.0703 26.6707 18.5906 26.6466C19.1109 26.6225 19.6014 26.3913 19.958 26.0022L27.458 17.8022H27.46Z" fill="#031956"/>
</g>
<defs>
<clipPath id="clip0_2_22">
<rect width="40" height="40" rx="11" fill="white"/>
</clipPath>
</defs>
</svg>
