<svg width="60" height="60" viewBox="0 0 60 60" fill="none" xmlns="http://www.w3.org/2000/svg">
<path d="M12 45C11.2044 45 10.4413 45.3161 9.87868 45.8787C9.31607 46.4413 9 47.2043 9 48C9 48.7956 9.31607 49.5587 9.87868 50.1213C10.4413 50.6839 11.2044 51 12 51H33.804C34.3306 51.912 35.088 52.6694 36.0001 53.196C36.9122 53.7225 37.9468 53.9997 39 53.9997C40.0532 53.9997 41.0878 53.7225 41.9999 53.196C42.912 52.6694 43.6694 51.912 44.196 51H48C48.7956 51 49.5587 50.6839 50.1213 50.1213C50.6839 49.5587 51 48.7956 51 48C51 47.2043 50.6839 46.4413 50.1213 45.8787C49.5587 45.3161 48.7956 45 48 45H44.196C43.6694 44.0879 42.912 43.3306 41.9999 42.804C41.0878 42.2775 40.0532 42.0003 39 42.0003C37.9468 42.0003 36.9122 42.2775 36.0001 42.804C35.088 43.3306 34.3306 44.0879 33.804 45H12ZM12 27C11.2044 27 10.4413 27.3161 9.87868 27.8787C9.31607 28.4413 9 29.2043 9 30C9 30.7956 9.31607 31.5587 9.87868 32.1213C10.4413 32.6839 11.2044 33 12 33H15.804C16.3306 33.912 17.088 34.6694 18.0001 35.196C18.9122 35.7225 19.9468 35.9997 21 35.9997C22.0532 35.9997 23.0878 35.7225 23.9999 35.196C24.912 34.6694 25.6694 33.912 26.196 33H48C48.7956 33 49.5587 32.6839 50.1213 32.1213C50.6839 31.5587 51 30.7956 51 30C51 29.2043 50.6839 28.4413 50.1213 27.8787C49.5587 27.3161 48.7956 27 48 27L26.196 27C25.6694 26.0879 24.912 25.3306 23.9999 24.804C23.0878 24.2775 22.0532 24.0003 21 24.0003C19.9468 24.0003 18.9122 24.2775 18.0001 24.804C17.088 25.3306 16.3306 26.0879 15.804 27H12ZM9 12C9 11.2043 9.31607 10.4413 9.87868 9.87867C10.4413 9.31606 11.2044 8.99999 12 8.99999H33.804C34.3306 8.08794 35.088 7.33058 36.0001 6.80402C36.9122 6.27746 37.9468 6.00025 39 6.00025C40.0532 6.00025 41.0878 6.27746 41.9999 6.80402C42.912 7.33058 43.6694 8.08794 44.196 8.99999H48C48.7956 8.99999 49.5587 9.31606 50.1213 9.87867C50.6839 10.4413 51 11.2043 51 12C51 12.7956 50.6839 13.5587 50.1213 14.1213C49.5587 14.6839 48.7956 15 48 15H44.196C43.6694 15.912 42.912 16.6694 41.9999 17.196C41.0878 17.7225 40.0532 17.9997 39 17.9997C37.9468 17.9997 36.9122 17.7225 36.0001 17.196C35.088 16.6694 34.3306 15.912 33.804 15H12C11.2044 15 10.4413 14.6839 9.87868 14.1213C9.31607 13.5587 9 12.7956 9 12V12Z" fill="white"/>
</svg>
