<svg width="50" height="50" viewBox="0 0 50 50" fill="none" xmlns="http://www.w3.org/2000/svg">
<g clip-path="url(#clip0_15_4)">
<path d="M6.25 15.625V46.875C6.25 48.5938 7.65625 50 9.375 50H37.5C39.2188 50 40.625 48.5938 40.625 46.875V15.625H6.25ZM15.625 43.75H12.5V21.875H15.625V43.75ZM21.875 43.75H18.75V21.875H21.875V43.75ZM28.125 43.75H25V21.875H28.125V43.75ZM34.375 43.75H31.25V21.875H34.375V43.75ZM41.4062 6.25H31.25V2.34375C31.2475 1.72291 30.9998 1.1282 30.5608 0.689196C30.1218 0.250191 29.5271 0.00246858 28.9062 0L17.9688 0C17.3479 0.00246858 16.7532 0.250191 16.3142 0.689196C15.8752 1.1282 15.6275 1.72291 15.625 2.34375V6.25H5.46875C4.84766 6.25165 4.25247 6.49911 3.81329 6.93829C3.37411 7.37747 3.12665 7.97266 3.125 8.59375V12.5H43.75V8.59375C43.7484 7.97266 43.5009 7.37747 43.0617 6.93829C42.6225 6.49911 42.0273 6.25165 41.4062 6.25ZM28.125 6.25H18.75V3.16563H28.125V6.25Z" fill="#344FA1"/>
</g>
<defs>
<clipPath id="clip0_15_4">
<rect width="50" height="50" fill="white"/>
</clipPath>
</defs>
</svg>
